<?xml version="1.0"?>
<svg xmlns="http://www.w3.org/2000/svg" viewBox="0 0 64 64" width="512" height="512"><g id="auto_drone" data-name="auto drone"><path d="M57.456,40.485l-5.674,5.674a3.6,3.6,0,0,0-1.388,0L43,38.766V25.234l7.394-7.394a3.6,3.6,0,0,0,1.388,0l5.674,5.674A3,3,0,0,0,61.7,19.272L56.024,13.6A4.87,4.87,0,0,0,50.4,7.976L44.729,2.3a3.073,3.073,0,0,0-4.244,0,3,3,0,0,0,0,4.243l5.674,5.674a5.1,5.1,0,0,0-.067.69,5.061,5.061,0,0,0,.068.7l-3.181,3.181A2.989,2.989,0,0,0,41,14.184V13a1,1,0,0,0-.758-.97l-.668-.167.355-.591a1,1,0,0,0-.151-1.222L36.949,7.222a1,1,0,0,0-1.221-.151l-.591.355-.167-.668A1,1,0,0,0,34,6H30a1,1,0,0,0-.97.758l-.167.668-.591-.355a1,1,0,0,0-1.221.151L24.222,10.05a1,1,0,0,0-.151,1.222l.355.591-.668.167A1,1,0,0,0,23,13v1.184a2.989,2.989,0,0,0-1.979,2.6L17.84,13.606a5.061,5.061,0,0,0,.068-.7,5.1,5.1,0,0,0-.067-.69l5.674-5.674a3,3,0,0,0,0-4.242,3.072,3.072,0,0,0-4.243,0L13.6,7.976A4.871,4.871,0,0,0,7.976,13.6L2.3,19.272a3,3,0,0,0,4.242,4.243l5.674-5.674a5.1,5.1,0,0,0,.69.067,5.061,5.061,0,0,0,.7-.068L21,25.234V38.766L13.606,46.16a5.061,5.061,0,0,0-.7-.068,5.1,5.1,0,0,0-.69.067L6.544,40.485A3,3,0,1,0,2.3,44.728L7.976,50.4A4.87,4.87,0,0,0,13.6,56.024L19.271,61.7a3,3,0,1,0,4.244-4.242l-5.674-5.674a3.6,3.6,0,0,0,0-1.388l5.13-5.13a10.977,10.977,0,0,0,18.06,0l5.13,5.13a3.6,3.6,0,0,0,0,1.388l-5.674,5.674A3,3,0,1,0,44.728,61.7L50.4,56.024A4.871,4.871,0,0,0,56.024,50.4L61.7,44.728a3,3,0,1,0-4.242-4.243Zm2.828-19.8A1,1,0,1,1,58.87,22.1l-5.022-5.022a5,5,0,0,0,.779-.636,5.053,5.053,0,0,0,.636-.778Zm-7.071-9.9a3,3,0,0,1,0,4.242,3.07,3.07,0,0,1-4.242,0,3,3,0,1,1,4.242-4.242ZM41.9,5.129a1,1,0,0,1,0-1.413,1.023,1.023,0,0,1,1.414,0l5.022,5.021a5.028,5.028,0,0,0-1.414,1.414Zm5.658,11.314a5,5,0,0,0,.773.633L43,22.406V19.594l3.924-3.924A5.043,5.043,0,0,0,47.557,16.443ZM25,13.781l1.22-.3a1,1,0,0,0,.615-1.485l-.647-1.078,1.725-1.725,1.078.647a1,1,0,0,0,1.485-.615l.3-1.22h2.438l.3,1.22a1,1,0,0,0,1.485.615l1.078-.647,1.726,1.725-.648,1.078a1,1,0,0,0,.615,1.485l1.22.3v2.438l-1.22.3a1,1,0,0,0-.615,1.485l.648,1.078-1.726,1.725-1.078-.647a1,1,0,0,0-1.485.615l-.3,1.22H30.781l-.3-1.22a1,1,0,0,0-1.485-.615l-1.078.647-1.725-1.725.647-1.078a1,1,0,0,0-.615-1.485l-1.22-.3ZM20.688,3.715a1.022,1.022,0,0,1,1.413,0,1,1,0,0,1,0,1.414l-5.022,5.021a5.028,5.028,0,0,0-1.414-1.414ZM5.13,22.1a1,1,0,0,1-1.414-1.415l5.021-5.021a5.053,5.053,0,0,0,.636.778,5,5,0,0,0,.779.636Zm5.657-7.072a3,3,0,1,1,4.242,0A3.07,3.07,0,0,1,10.787,15.029Zm4.883,2.047a5.042,5.042,0,0,0,1.406-1.406L21,19.594v2.812ZM3.716,43.314A1,1,0,1,1,5.13,41.9l5.022,5.022a5,5,0,0,0-.779.636,5.053,5.053,0,0,0-.636.778Zm7.071,9.9a3,3,0,1,1,4.242,0A3.072,3.072,0,0,1,10.787,53.213ZM22.1,58.871a1,1,0,0,1,0,1.413,1.021,1.021,0,0,1-1.414,0l-5.022-5.021a5.028,5.028,0,0,0,1.414-1.414ZM17.076,48.33a5.042,5.042,0,0,0-1.406-1.406l5.586-5.586a10.958,10.958,0,0,0,.7,2.117ZM32,48a9.01,9.01,0,0,1-9-9V17a1,1,0,0,0,.758.97l.668.167-.355.591a1,1,0,0,0,.151,1.222l2.829,2.828a1,1,0,0,0,1.221.151l.591-.355.167.668A1,1,0,0,0,30,24h4a1,1,0,0,0,.97-.758l.167-.668.591.355a1,1,0,0,0,1.221-.151l2.829-2.828a1,1,0,0,0,.151-1.222l-.355-.591.668-.167A1,1,0,0,0,41,17V39A9.01,9.01,0,0,1,32,48Zm10.049-4.545a10.958,10.958,0,0,0,.7-2.117l5.586,5.586a5.042,5.042,0,0,0-1.406,1.406Zm1.264,16.83a1.023,1.023,0,0,1-1.414,0,1,1,0,0,1,0-1.414l5.022-5.021a5.028,5.028,0,0,0,1.414,1.414Zm9.9-7.072a3.072,3.072,0,0,1-4.242,0,3,3,0,1,1,4.242,0Zm7.071-9.9-5.021,5.021a5.053,5.053,0,0,0-.636-.778,5,5,0,0,0-.779-.636L58.87,41.9a1,1,0,1,1,1.414,1.415Z"/><path d="M32,19a4,4,0,1,0-4-4A4,4,0,0,0,32,19Zm0-6a2,2,0,1,1-2,2A2,2,0,0,1,32,13Z"/><rect x="12" y="12" width="2" height="2"/><rect x="50" y="12" width="2" height="2"/><rect x="50" y="50" width="2" height="2"/><rect x="12" y="50" width="2" height="2"/><path d="M39,34a7,7,0,1,0-7,7A7.008,7.008,0,0,0,39,34Zm-7,5a5,5,0,1,1,5-5A5.006,5.006,0,0,1,32,39Z"/><path d="M39,25H36v2h2v2h2V26A1,1,0,0,0,39,25Z"/><path d="M26,27h2V25H25a1,1,0,0,0-1,1v3h2Z"/><path d="M38,41H36v2h3a1,1,0,0,0,1-1V39H38Z"/><path d="M26,39H24v3a1,1,0,0,0,1,1h3V41H26Z"/><path d="M46.944,36.951a6.989,6.989,0,0,0,0-9.9L45.536,28.47a4.988,4.988,0,0,1,0,7.06Z"/><path d="M53,32a10.929,10.929,0,0,0-3.223-7.777l-1.414,1.414a9,9,0,0,1,0,12.726l1.414,1.414A10.929,10.929,0,0,0,53,32Z"/><path d="M57,32a14.94,14.94,0,0,0-4.391-10.6l-1.418,1.411a13,13,0,0,1,0,18.388l1.418,1.411A14.94,14.94,0,0,0,57,32Z"/><path d="M17.056,27.049a6.989,6.989,0,0,0,0,9.9l1.408-1.421a4.988,4.988,0,0,1,0-7.06Z"/><path d="M11,32a10.929,10.929,0,0,0,3.223,7.777l1.414-1.414a9,9,0,0,1,0-12.726l-1.414-1.414A10.929,10.929,0,0,0,11,32Z"/><path d="M7,32a14.94,14.94,0,0,0,4.391,10.6l1.418-1.411a13,13,0,0,1,0-18.388L11.391,21.4A14.94,14.94,0,0,0,7,32Z"/></g></svg>
